<svg width="37" height="28" viewBox="0 0 37 28" fill="none" xmlns="http://www.w3.org/2000/svg">
<g id="star-solid 1" clip-path="url(#clip0_247_90)">
<path id="Vector" d="M20.3564 0.984375C20.016 0.382812 19.2965 0 18.5064 0C17.7163 0 17.0033 0.382812 16.6564 0.984375L12.5261 8.21953L3.30175 9.37891C2.53092 9.47734 1.88856 9.93672 1.65088 10.5656C1.41321 11.1945 1.60592 11.8891 2.15835 12.3539L8.85175 17.9922L7.27154 25.9602C7.14307 26.6164 7.46425 27.2836 8.10019 27.6719C8.73613 28.0602 9.57762 28.1094 10.2714 27.7977L18.5129 24.0516L26.7544 27.7977C27.4481 28.1094 28.2896 28.0656 28.9255 27.6719C29.5615 27.2781 29.8827 26.6164 29.7542 25.9602L28.1676 17.9922L34.861 12.3539C35.4134 11.8891 35.6125 11.1945 35.3684 10.5656C35.1243 9.93672 34.4884 9.47734 33.7176 9.37891L24.4868 8.21953L20.3564 0.984375Z" fill="#638A5C"/>
</g>
<defs>
<clipPath id="clip0_247_90">
<rect width="37" height="28" fill="white"/>
</clipPath>
</defs>
</svg>
